HIERARCHY
ROOT Hips
{
	OFFSET 0.000000 0.000000 0.000000
	CHANNELS 6 Xposition Yposition Zposition Zrotation Yrotation Xrotation 
	JOINT LeftUpLeg_virtual
	{
		OFFSET 0.000000 0.000000 0.000000
		CHANNELS 3 Zrotation Yrotation Xrotation
		JOINT LeftUpLeg
		{
			OFFSET 10.205400 -3.823500 0.155100
			CHANNELS 3 Zrotation Yrotation Xrotation
			JOINT LeftLeg
			{
				OFFSET 0.708757 -12.982077 0.567790
				CHANNELS 3 Zrotation Yrotation Xrotation
				JOINT LeftFoot
				{
					OFFSET -0.708756 -10.717838 -2.184338
					CHANNELS 3 Zrotation Yrotation Xrotation
					JOINT LeftToeBase
					{
						OFFSET 0.108149 -7.191104 7.560241
						CHANNELS 3 Zrotation Yrotation Xrotation
						End Site
						{
							OFFSET 0.000000 0.000000 0.000000
						}
					}
				}
			}
		}
	}
	JOINT RightUpLeg_virtual
	{
		OFFSET 0.000000 0.000000 0.000000
		CHANNELS 3 Zrotation Yrotation Xrotation
		JOINT RightUpLeg
		{
			OFFSET -10.205400 -3.823500 0.005500
			CHANNELS 3 Zrotation Yrotation Xrotation
			JOINT RightLeg
			{
				OFFSET -0.708756 -12.982134 0.610632
				CHANNELS 3 Zrotation Yrotation Xrotation
				JOINT RightFoot
				{
					OFFSET 0.708754 -10.717769 -1.945823
					CHANNELS 3 Zrotation Yrotation Xrotation
					JOINT RightToeBase
					{
						OFFSET -0.108140 -7.191069 7.372968
						CHANNELS 3 Zrotation Yrotation Xrotation
						End Site
						{
							OFFSET 0.000000 0.000000 0.000000
						}
					}
				}
			}
		}
	}
	JOINT Spine_virtual
	{
		OFFSET 0.000000 0.000000 0.000000
		CHANNELS 3 Zrotation Yrotation Xrotation
		JOINT Spine
		{
			OFFSET 0.000000 6.876099 0.125700
			CHANNELS 3 Zrotation Yrotation Xrotation
			JOINT Spine1
			{
				OFFSET 0.000000 8.022060 0.146608
				CHANNELS 3 Zrotation Yrotation Xrotation
				JOINT Spine2
				{
					OFFSET 0.000000 9.168068 0.167552
					CHANNELS 3 Zrotation Yrotation Xrotation
					JOINT Neck_virtual
					{
						OFFSET 0.000000 0.000000 0.000000
						CHANNELS 3 Zrotation Yrotation Xrotation
						JOINT Neck
						{
							OFFSET 0.000000 10.314075 0.188496
							CHANNELS 3 Zrotation Yrotation Xrotation
							JOINT Head
							{
								OFFSET 0.000000 7.643700 -2.377400
								CHANNELS 3 Zrotation Yrotation Xrotation
								End Site
								{
									OFFSET 0.000000 0.000000 0.000000
								}
							}
						}
					}
					JOINT LeftShoulder_virtual
					{
						OFFSET 0.000000 0.000000 0.000000
						CHANNELS 3 Zrotation Yrotation Xrotation
						JOINT LeftShoulder
						{
							OFFSET 4.392200 8.824978 0.174984
							CHANNELS 3 Zrotation Yrotation Xrotation
							JOINT LeftArm
							{
								OFFSET 8.771219 -2.981674 -0.026999
								CHANNELS 3 Zrotation Yrotation Xrotation
								JOINT LeftForeArm
								{
									OFFSET 8.512804 0.000000 -0.000000
									CHANNELS 3 Zrotation Yrotation Xrotation
									JOINT LeftHand
									{
										OFFSET 18.484802 0.000000 -0.000000
										CHANNELS 3 Zrotation Yrotation Xrotation
										End Site
										{
											OFFSET 0.000000 0.000000 0.000000
										}
									}
								}
							}
						}
					}
					JOINT RightShoulder_virtual
					{
						OFFSET 0.000000 0.000000 0.000000
						CHANNELS 3 Zrotation Yrotation Xrotation
						JOINT RightShoulder
						{
							OFFSET -4.392200 8.824993 0.141379
							CHANNELS 3 Zrotation Yrotation Xrotation
							JOINT RightArm
							{
								OFFSET -8.771282 -2.981682 -0.094208
								CHANNELS 3 Zrotation Yrotation Xrotation
								JOINT RightForeArm
								{
									OFFSET -8.494598 0.000000 0.000000
									CHANNELS 3 Zrotation Yrotation Xrotation
									JOINT RightHand
									{
										OFFSET -18.483803 0.000000 0.000001
										CHANNELS 3 Zrotation Yrotation Xrotation
										End Site
										{
											OFFSET 0.000000 0.000000 0.000000
										}
									}
								}
							}
						}
					}
				}
			}
		}
	}
}
MOTION
Frames: 12
Frame Time: 0.033333
-12.591928 35.752399 37.976715 -179.794731 18.625494 179.943984 -1.323637 -2.464242 3.957804 -18.445703 4.048031 -21.350065 17.268518 8.139052 23.468409 -1.705296 -1.747567 7.242730 0.000000 0.000000 0.000000 3.029978 0.000038 1.208659 -4.661084 -1.553603 -25.336672 -7.520757 1.909214 21.326868 8.130307 3.991301 19.947509 0.000000 0.000000 0.000000 1.447044 0.626659 -4.958486 3.673443 0.301338 -13.585224 -1.922536 -3.664563 10.162936 -0.024408 -0.007514 -0.042399 -1.927176 -2.241302 11.399604 -1.277345 3.667199 26.100994 0.000000 0.000000 0.000000 -0.109198 -1.815239 7.942886 -1.067051 1.790874 -2.816303 -40.740767 6.201890 -4.568133 -169.980650 -79.858906 -166.864609 0.000000 0.000000 0.000000 -4.415217 -0.494308 7.294245 20.312248 6.727514 -4.004428 34.315055 -12.943947 -7.720019 -35.319373 83.460936 -39.514331 0.000000 0.000000 0.000000 
-12.567644 35.757763 37.960056 -179.867882 18.698140 179.825794 -1.370313 -2.469452 3.988684 -18.390776 3.917374 -21.237201 17.310020 8.153268 23.512738 -1.701746 -1.716765 7.261817 0.000000 0.000000 0.000000 2.991344 -0.042308 1.252010 -4.601351 -1.478850 -25.298256 -7.535539 1.991443 21.368776 8.021460 3.997140 19.880335 0.000000 0.000000 0.000000 1.424742 0.588039 -4.823040 3.632257 0.332188 -13.580292 -1.945787 -3.643759 10.173417 -0.016129 -0.015312 -0.028458 -1.918142 -2.086067 11.371468 -1.266372 3.674610 26.143876 0.000000 0.000000 0.000000 -0.139380 -1.832996 7.913139 -0.968775 1.841741 -2.812617 -40.832705 6.258657 -4.432681 -171.115281 -79.888447 -165.830982 0.000000 0.000000 0.000000 -4.442478 -0.428040 7.314022 20.378045 6.652025 -3.807588 34.611929 -12.743799 -7.956296 -35.356665 83.450992 -39.696294 0.000000 0.000000 0.000000 
-12.540329 35.760578 37.929165 -179.816833 18.788406 179.889697 -1.303677 -2.553136 4.004110 -18.346962 3.842528 -21.270830 17.336622 8.212748 23.631852 -1.675668 -1.695925 7.135393 0.000000 0.000000 0.000000 3.036923 -0.076349 1.246313 -4.567855 -1.388650 -25.326647 -7.505277 1.989180 21.390001 7.984602 4.011379 19.885093 0.000000 0.000000 0.000000 1.502373 0.520333 -4.774467 3.604857 0.353764 -13.635034 -1.970125 -3.643874 10.107821 0.006729 -0.023975 -0.009839 -1.995225 -2.043099 11.373655 -1.248728 3.644304 26.140164 0.000000 0.000000 0.000000 -0.209816 -1.791947 7.940948 -0.831717 1.931785 -2.808886 -40.962031 6.330453 -4.426909 -171.326375 -79.869227 -165.499759 0.000000 0.000000 0.000000 -4.513633 -0.408850 7.394656 20.496887 6.608197 -3.880126 34.845399 -12.561566 -8.016930 -34.869564 83.453150 -39.385883 0.000000 0.000000 0.000000 
-12.501959 35.759804 37.888000 -179.895052 18.921246 179.897470 -1.334663 -2.554614 4.105158 -18.298459 3.767035 -21.267087 17.400641 8.208917 23.687899 -1.677730 -1.702234 7.075470 0.000000 0.000000 0.000000 2.983250 -0.088786 1.252895 -4.533681 -1.366234 -25.413901 -7.455170 2.013611 21.534738 7.871881 4.110866 19.729179 0.000000 0.000000 0.000000 1.458325 0.539883 -4.719448 3.551682 0.407721 -13.691486 -2.009481 -3.645782 10.157172 -0.015460 -0.000970 -0.027836 -1.960794 -2.124096 11.413104 -1.190096 3.621757 26.178691 0.000000 0.000000 0.000000 -0.178917 -1.840350 7.921591 -0.643823 1.925386 -2.769158 -41.006164 6.350368 -4.439801 -172.020978 -79.883762 -164.800758 0.000000 0.000000 0.000000 -4.492594 -0.412641 7.388987 20.592995 6.506376 -3.774372 35.069558 -12.339146 -8.254640 -34.355961 83.480191 -39.012982 0.000000 0.000000 0.000000 
-12.456290 35.758350 37.841160 -179.871529 18.977561 179.969255 -1.281190 -2.738170 4.160855 -18.249864 3.699934 -21.294006 17.387384 8.244055 23.844192 -1.644613 -1.695630 6.892997 0.000000 0.000000 0.000000 3.013418 -0.177001 1.265590 -4.507538 -1.380938 -25.504278 -7.360927 1.903345 21.742536 7.775639 4.207751 19.604159 0.000000 0.000000 0.000000 1.489024 0.467324 -4.693408 3.502948 0.417843 -13.732743 -1.963458 -3.698124 10.174069 0.005335 -0.036536 0.015057 -2.069949 -2.055876 11.400529 -1.071465 3.687052 26.232257 0.000000 0.000000 0.000000 -0.301280 -1.779896 7.923510 -0.449291 1.946250 -2.853934 -41.177172 6.378165 -4.552896 -171.618980 -79.906246 -165.215063 0.000000 0.000000 0.000000 -4.620300 -0.422814 7.366829 20.681830 6.471147 -3.809497 35.146057 -12.129316 -8.364648 -34.043746 83.478688 -38.820343 0.000000 0.000000 0.000000 
-12.402264 35.758114 37.793262 -179.870832 19.160363 179.981960 -1.235608 -2.754773 4.187913 -18.171969 3.649755 -21.267298 17.289405 8.220204 23.907595 -1.545394 -1.641331 6.775055 0.000000 0.000000 0.000000 3.016631 -0.070886 1.214632 -4.456049 -1.529089 -25.513878 -7.244148 1.807687 22.053417 7.669402 4.316770 19.337790 0.000000 0.000000 0.000000 1.521654 0.428403 -4.642495 3.567959 0.480541 -13.710522 -2.096698 -3.687865 10.190809 -0.043502 -0.028353 -0.009820 -2.032708 -2.143353 11.464757 -1.090435 3.601396 26.295752 0.000000 0.000000 0.000000 -0.251987 -1.811439 7.959389 -0.262293 1.989034 -2.689421 -41.246163 6.434934 -4.621209 -172.852212 -79.955622 -163.995929 0.000000 0.000000 0.000000 -4.561272 -0.404145 7.464475 20.695280 6.531906 -3.854569 35.219966 -12.055586 -8.441256 -33.956408 83.514902 -38.713092 0.000000 0.000000 0.000000 
-12.338847 35.756466 37.743633 -179.902975 19.108706 -179.987369 -1.225711 -2.872277 4.173704 -18.074048 3.590195 -21.172506 17.255653 8.155181 24.014914 -1.526370 -1.643710 6.650113 0.000000 0.000000 0.000000 2.977366 -0.125736 1.160383 -4.378103 -1.807690 -25.542761 -7.136950 1.705668 22.502492 7.569967 4.454900 19.032411 0.000000 0.000000 0.000000 1.478851 0.467839 -4.645322 3.556870 0.531441 -13.677755 -2.109642 -3.700845 10.202866 0.014086 -0.016200 0.008622 -2.077491 -2.122420 11.488032 -1.017804 3.647200 26.325400 0.000000 0.000000 0.000000 -0.321291 -1.890362 7.972127 -0.100797 1.922529 -2.844704 -41.362987 6.525772 -4.800856 -172.030472 -79.990914 -164.851629 0.000000 0.000000 0.000000 -4.623325 -0.480160 7.425579 20.675886 6.432275 -3.790589 35.273959 -11.951006 -8.736967 -32.702164 83.663581 -37.604812 0.000000 0.000000 0.000000 
-12.275105 35.758228 37.690941 -179.913876 19.123773 -179.994623 -1.214813 -2.842957 4.138841 -17.940974 3.574411 -21.018789 17.093616 8.126333 24.101535 -1.401101 -1.571452 6.546133 0.000000 0.000000 0.000000 2.959413 0.014841 1.122098 -4.285907 -2.133594 -25.460399 -6.991855 1.570459 22.963045 7.443645 4.535684 18.653436 0.000000 0.000000 0.000000 1.459819 0.467215 -4.674471 3.587855 0.545982 -13.617411 -2.148315 -3.719380 10.240368 -0.023829 -0.032690 -0.011640 -2.085510 -2.183566 11.492296 -1.049483 3.620589 26.359319 0.000000 0.000000 0.000000 -0.305192 -1.862109 7.976133 0.025014 1.957677 -2.758898 -41.395656 6.571073 -4.942896 -172.026770 -80.034190 -164.897719 0.000000 0.000000 0.000000 -4.617500 -0.444147 7.419040 20.642922 6.487228 -3.848836 35.244343 -12.081880 -8.737638 -33.652308 83.717683 -38.572530 0.000000 0.000000 0.000000 
-12.216208 35.758045 37.639347 -179.983503 19.154707 179.888482 -1.279135 -2.706945 4.144444 -17.784587 3.566812 -20.785292 16.918688 8.144335 24.174925 -1.273278 -1.496301 6.463016 0.000000 0.000000 0.000000 2.876742 0.201910 1.094052 -4.192480 -2.500115 -25.315668 -6.835463 1.635300 23.383368 7.231891 4.591778 18.184446 0.000000 0.000000 0.000000 1.383475 0.552137 -4.680175 3.592888 0.552172 -13.527235 -2.135735 -3.713590 10.284883 -0.080343 -0.004001 -0.007009 -2.058009 -2.257258 11.417473 -1.069255 3.626347 26.357473 0.000000 0.000000 0.000000 -0.273744 -1.830724 7.915743 0.081182 1.867633 -2.759819 -41.492815 6.696286 -4.868417 -172.113978 -80.072848 -164.861765 0.000000 0.000000 0.000000 -4.583917 -0.486025 7.356458 20.568761 6.473842 -3.948643 35.231219 -12.129701 -8.757813 -33.328427 83.772659 -38.258885 0.000000 0.000000 0.000000 
-12.166274 35.757866 37.585182 179.948915 19.080999 179.913835 -1.352545 -2.606272 4.059031 -17.625235 3.651221 -20.680218 16.722668 8.036846 24.322001 -1.230647 -1.529855 6.280289 0.000000 0.000000 0.000000 2.771341 0.378941 1.044349 -4.174843 -2.729823 -25.197787 -6.782680 1.471888 23.782422 7.080940 4.810384 17.796907 0.000000 0.000000 0.000000 1.306260 0.634958 -4.777988 3.581810 0.508484 -13.479103 -2.160006 -3.715435 10.279454 0.007469 0.013447 -0.013447 -2.115482 -2.227611 11.420909 -1.107995 3.654800 26.326681 0.000000 0.000000 0.000000 -0.339675 -1.926148 7.901030 0.144946 1.863702 -2.812719 -41.516256 6.820110 -4.781202 -171.926175 -80.119307 -165.123334 0.000000 0.000000 0.000000 -4.620284 -0.541910 7.386925 20.500575 6.463738 -4.050207 35.254219 -12.176799 -8.708580 -32.888126 83.699385 -37.817019 0.000000 0.000000 0.000000 
-12.129584 35.759075 37.523365 -179.860683 18.922762 -179.983968 -1.198650 -2.573776 3.987996 -17.416800 3.599094 -20.546870 16.383430 8.047356 24.446857 -1.066400 -1.506967 6.071177 0.000000 0.000000 0.000000 2.908943 0.448593 1.038285 -4.160509 -2.926697 -25.064322 -6.774976 1.195979 24.007323 7.121540 4.718400 17.459056 0.000000 0.000000 0.000000 1.383039 0.699712 -4.879742 3.670343 0.406846 -13.466914 -2.127777 -3.752453 10.305881 -0.013504 -0.020548 -0.024284 -2.105833 -2.229176 11.421364 -1.119575 3.718670 26.263930 0.000000 0.000000 0.000000 -0.362618 -2.008381 7.851437 0.153486 1.909787 -2.812040 -41.528571 7.024644 -4.679172 -171.669879 -80.151259 -165.463751 0.000000 0.000000 0.000000 -4.621074 -0.593085 7.395231 20.390673 6.453855 -4.153980 35.352752 -12.129657 -8.855313 -31.434327 83.619732 -36.368070 0.000000 0.000000 0.000000 
-12.098598 35.761059 37.457191 -179.953054 18.951260 179.901459 -1.278095 -2.502570 4.037011 -17.381124 3.892389 -20.397527 16.206519 7.973889 24.443801 -1.010082 -1.570306 5.923330 0.000000 0.000000 0.000000 2.826293 0.551105 1.026228 -4.175931 -3.189003 -24.871704 -6.685685 1.258247 24.278969 7.112414 4.744518 17.087327 0.000000 0.000000 0.000000 1.310609 0.756984 -4.821532 3.650816 0.303258 -13.378330 -2.109433 -3.740592 10.361649 -0.007913 -0.016134 -0.000408 -2.072743 -2.263811 11.346246 -1.179996 3.747741 26.189886 0.000000 0.000000 0.000000 -0.317783 -1.944092 7.832254 0.106495 1.767967 -2.796438 -41.619266 7.151108 -4.647848 -171.542127 -80.152980 -165.697575 0.000000 0.000000 0.000000 -4.530239 -0.576554 7.365206 20.314120 6.438117 -4.212765 35.466420 -12.094163 -9.010278 -30.933114 83.543541 -35.875196 0.000000 0.000000 0.000000 
